PathFileType	4	(X/Y/Z)	pose2sim_0-766.trc
DataRate	CameraRate	NumFrames	NumMarkers	Units	OrigDataRate	OrigDataStartFrame	OrigNumFrames
50	50	5	22	m	50	95	767
Frame#	Time	Hip			RHip			RKnee			RAnkle			RBigToe			RSmallToe			RHeel			LHip			LKnee			LAnkle			LBigToe			LSmallToe			LHeel			Neck			Head			Nose			RShoulder			RElbow			RWrist			LShoulder			LElbow			LWrist			
		X1	Y1	Z1	X2	Y2	Z2	X3	Y3	Z3	X4	Y4	Z4	X5	Y5	Z5	X6	Y6	Z6	X7	Y7	Z7	X8	Y8	Z8	X9	Y9	Z9	X10	Y10	Z10	X11	Y11	Z11	X12	Y12	Z12	X13	Y13	Z13	X14	Y14	Z14	X15	Y15	Z15	X16	Y16	Z16	X17	Y17	Z17	X18	Y18	Z18	X19	Y19	Z19	X20	Y20	Z20	X21	Y21	Z21	X22	Y22	Z22	
95	1.9	0.11819191677608192	0.8553848999241522	-0.044064147469882305	0.017379690617402126	0.8427907784269089	-0.043300273859588144	0.006193478344835115	0.4599848750819857	-0.07964776825060275	-0.004625322987802112	0.07938672273656305	-0.0871540278288554	-0.04133829272396152	0.0390091728541764	0.07840247021176956	-0.07781139070110311	0.0384643444552995	0.019196773409387444	0.00849189839165615	0.038062644270272124	-0.1136578380887119	0.21876353011674524	0.8426184640902183	-0.05162732428989844	0.23209202827960737	0.46067530543738844	-0.08378261290276029	0.253320338320725	0.08457819255998515	-0.08842009238423716	0.29809297662834794	0.040762489613058624	0.0667805717430364	0.3299724463364237	0.04271296311218897	0.020498020069852168	0.24034129866137524	0.042503266001473576	-0.11139302172315751	0.11794881365179884	1.3988033849669954	-0.01124077984957429	0.13152922044541807	1.6209505821581458	0.011512323428696191	0.12965239787481597	1.5075909660355538	0.11515647390931558	-0.027278035296146853	1.3003857728003312	-0.018899921013302876	-0.0866655382558647	1.0476718083019094	-0.04492860907007078	-0.18192686935510954	0.8500782673186805	0.025261591616777077	0.26241234507217887	1.3067421302384987	-0.03605260017393618	0.32889119235211295	1.0619618815120082	-0.03531778898597091	0.4182111670203986	0.8671572163467263	0.03251643514369214
96	1.92	0.11864987584887289	0.8624135101068737	-0.040384390862650436	0.0211585672596966	0.8484215063789039	-0.04058159452843822	0.0064677524751829705	0.46303886477649814	-0.0757977828418647	-0.0031874102863027613	0.07845628952248884	-0.0892026102475416	-0.04203159478557237	0.034172501402330864	0.0895992745422809	-0.0805228394366412	0.034310494480686314	0.02975520994625194	0.0083241682493009	0.032046530957703816	-0.11499319227060974	0.2166459839771114	0.8506639527023401	-0.04060217710040885	0.2281583990371029	0.4621050478350059	-0.0787341974060702	0.2529640499785566	0.07791752712227124	-0.0866540015810616	0.29289535316457693	0.035399972305892265	0.08503097467427397	0.3276144520596545	0.03403938192276892	0.027701344861314776	0.24142085295987234	0.03353571591384855	-0.10759301257845663	0.11963998282992092	1.3976160426089828	-0.010064376739318632	0.1328534244940311	1.6213886740881966	0.0062785508937725654	0.1363618722764893	1.5113448654709924	0.11407318217890254	-0.02761259462893912	1.2985323918505478	-0.0158989193560436	-0.08593538601548041	1.0438414959267537	-0.04449811078918378	-0.18166398522510718	0.8515492915517631	0.03314510728263297	0.26070472289830193	1.3022841987914557	-0.03848182005230247	0.328142508702781	1.0597118131827403	-0.042318570731278496	0.4197290851657543	0.8702227331437326	0.03876722472028317
97	1.94	0.11466857279419324	0.8555358704303979	-0.046479507479191495	0.01622050930476298	0.8426501627505149	-0.05134501452773832	0.006839877682050359	0.46101676026736604	-0.08066836959835143	-0.0026945052370419237	0.08072286964791003	-0.0896275397075326	-0.03923752645317234	0.03957148823337512	0.07373819562397806	-0.07670074530711272	0.038108271915960105	0.01814597083003401	0.008761482516462707	0.0380308108154927	-0.11576113691775324	0.21704357557125029	0.8437614805826007	-0.05720764526667182	0.23029075191403237	0.46294965780253594	-0.08281215333231555	0.25304293828796226	0.08560371279588376	-0.08354118614826288	0.30069480547552796	0.03916490872270145	0.06825769798852528	0.3305126941485479	0.041435822649227703	0.019325200994196504	0.24038318760781968	0.041642573990371086	-0.10685289224958225	0.1199523182634232	1.3976268200481798	-0.014281218632740978	0.12949993207689106	1.617916970272926	0.006263473986447694	0.12658615786890084	1.5082245014526436	0.1085313204130286	-0.027018068761925865	1.3002350141681451	-0.02564473680437094	-0.08655268012703583	1.0467685747165063	-0.050225353859693345	-0.18432515128561153	0.8550275035656886	0.033764684061429705	0.2624886703328157	1.3081051576608407	-0.03919112797048286	0.3292634271702387	1.0624847288143482	-0.037451695466086975	0.42287141024752894	0.8755000041825448	0.04732958950298771
98	1.96	0.11715072343048948	0.8557743046797459	-0.05452307313700392	0.016694925595661544	0.8431733021544762	-0.05372494585666346	0.00730312959858576	0.46147034801423253	-0.08204633120281238	-0.0010446148324320934	0.07811948286495711	-0.09055668191637785	-0.036880622495120745	0.03934389980553184	0.07319857198822001	-0.07322439080880255	0.03676694570179233	0.015059959984381173	0.008970373063902953	0.038282942704972775	-0.11840757894127295	0.22032338974245297	0.8453887422776734	-0.056117451983556395	0.23201479687267185	0.46074002321157403	-0.08658313888725158	0.2535561629663229	0.0855013193700307	-0.08451528749919793	0.30232137266392795	0.04200542545775349	0.07774001080610042	0.330226730975184	0.04433373510629773	0.027210018774663645	0.24089103164199105	0.04436150241754843	-0.10531713321515851	0.12007201750839148	1.3965119326015387	-0.016546391352791467	0.1309109239784795	1.620084203665123	0.006236175986224374	0.12894811867418957	1.5070006772216462	0.11629397163120549	-0.024815829255258923	1.3004762410113262	-0.025004308081655376	-0.0868283230208617	1.0484418463478065	-0.049145436455735866	-0.18575350473117855	0.8572071717697959	0.035161907662519476	0.26278295649384403	1.3070402549161513	-0.044418707470827545	0.3301387626352078	1.064317374355661	-0.04077755127876941	0.4223891104050634	0.8798278422032414	0.04551206008269031
99	1.98	0.1165992040067688	0.8523889424846042	-0.05537093226392669	0.015878674858055896	0.8401014725003833	-0.06187233189352247	0.009154083646422556	0.46138322342784077	-0.08136797946124572	-0.0020395372503698877	0.07881118581596715	-0.08797508020945735	-0.037723549116930766	0.03777666836327641	0.0800671016048428	-0.07417554874047494	0.03752955172031607	0.0220848100972673	0.00828090872142501	0.03768146529419351	-0.11453338797891309	0.21890243931337086	0.8412644168228959	-0.06033549907275907	0.2344398622080618	0.45925605490573773	-0.0877202045883925	0.25312908901297215	0.08484657674829062	-0.08392984370378585	0.3033720096212344	0.038523284790184964	0.07333611238349984	0.332982664424657	0.04311810731021011	0.024454172622882592	0.24067983285562228	0.04330587031533084	-0.1079492772515847	0.11945202571564702	1.3969673250643797	-0.015047865838820729	0.13147842308926416	1.6194685147336194	0.004811068842339159	0.12984780808863813	1.5076060218136889	0.11477985560355833	-0.025733705227990865	1.2996236161097094	-0.023069696427286995	-0.08641931542722382	1.0482416760077662	-0.05029193643066895	-0.1864291978846877	0.8636410259813555	0.03675788302867911	0.2625921461941139	1.306170482472964	-0.03657171154694814	0.33381189364754743	1.0653853814748402	-0.04235685163331417	0.4276037977656475	0.8852724159306122	0.05498145954583897
